<?xml version="1.0" standalone="no"?>
<!DOCTYPE svg PUBLIC "-//W3C//DTD SVG 20010904//EN"
 "http://www.w3.org/TR/2001/REC-SVG-20010904/DTD/svg10.dtd">
<svg version="1.0" xmlns="http://www.w3.org/2000/svg"
 width="128.000000pt" height="128.000000pt" viewBox="0 0 128.000000 128.000000"
 preserveAspectRatio="xMidYMid meet">

<g transform="translate(0.000000,128.000000) scale(0.100000,-0.100000)"
fill="rgb(255 255 255 / .5)" stroke="none">
<path d="M500 1264 c-234 -50 -436 -254 -485 -489 -95 -454 306 -855 760 -760
181 38 349 168 433 335 95 191 95 389 0 580 -129 257 -422 396 -708 334z m310
-313 l0 -59 -60 -4 c-33 -2 -65 -9 -71 -15 -6 -6 -11 -32 -12 -59 l-2 -49 68
-3 c74 -3 74 -3 61 -84 l-7 -38 -63 0 -64 0 0 -185 0 -185 -60 0 -60 0 0 185
0 185 -35 0 -35 0 0 60 0 60 34 0 33 0 6 74 c10 141 46 175 185 176 l82 0 0
-59z"/>
</g>
</svg>
