<?xml version="1.0" standalone="no"?>
<!DOCTYPE svg PUBLIC "-//W3C//DTD SVG 20010904//EN"
 "http://www.w3.org/TR/2001/REC-SVG-20010904/DTD/svg10.dtd">
<svg version="1.0" xmlns="http://www.w3.org/2000/svg"
 width="128.000000pt" height="128.000000pt" viewBox="0 0 128.000000 128.000000"
 preserveAspectRatio="xMidYMid meet">
<metadata>
Created by potrace 1.16, written by Peter Selinger 2001-2019
</metadata>
<g transform="translate(0.000000,128.000000) scale(0.100000,-0.100000)"
fill="rgb(255 255 255 / .5)" stroke="none">
<path d="M465 1262 c-224 -67 -392 -240 -449 -459 -21 -80 -21 -246 0 -327 57
-220 248 -410 465 -461 82 -19 236 -19 317 0 222 52 408 237 466 462 21 80 21
246 0 327 -22 84 -85 202 -144 269 -64 71 -171 142 -263 175 -96 35 -298 42
-392 14z m411 -318 c19 -9 44 -31 57 -48 21 -30 22 -39 22 -256 0 -217 -1
-226 -22 -256 -42 -58 -69 -64 -293 -64 -224 0 -251 6 -293 64 -21 29 -22 42
-25 243 -3 198 -2 214 18 252 37 73 63 80 298 81 168 0 210 -3 238 -16z"/>
<path d="M394 886 l-34 -34 0 -212 0 -212 34 -34 34 -34 212 0 212 0 34 34 34
34 0 212 0 212 -34 34 -34 34 -212 0 -212 0 -34 -34z m352 -71 c133 -78 131
-273 -4 -352 -179 -105 -385 99 -279 279 60 102 180 133 283 73z"/>
<path d="M562 784 c-99 -51 -111 -211 -19 -276 41 -30 123 -36 171 -13 103 49
117 211 23 277 -41 29 -129 35 -175 12z"/>
</g>
</svg>
