<?xml version="1.0" standalone="no"?>
<!DOCTYPE svg PUBLIC "-//W3C//DTD SVG 20010904//EN"
 "http://www.w3.org/TR/2001/REC-SVG-20010904/DTD/svg10.dtd">
<svg version="1.0" xmlns="http://www.w3.org/2000/svg"
 width="128.000000pt" height="128.000000pt" viewBox="0 0 128.000000 128.000000"
 preserveAspectRatio="xMidYMid meet">
<metadata>
Created by potrace 1.16, written by Peter Selinger 2001-2019
</metadata>
<g transform="translate(0.000000,128.000000) scale(0.100000,-0.100000)"
fill="rgb(255 255 255 / .5)" stroke="none">
<path d="M465 1261 c-223 -65 -392 -238 -449 -458 -21 -80 -21 -246 0 -327 57
-220 248 -410 465 -461 82 -19 236 -19 318 0 166 39 329 167 408 320 55 107
73 181 73 305 0 124 -18 198 -73 305 -78 151 -236 276 -403 319 -84 22 -260
20 -339 -3z m-71 -255 c68 -28 64 -122 -7 -145 -79 -27 -147 52 -101 117 14
21 45 40 67 41 4 1 23 -5 41 -13z m557 -251 c65 -42 74 -75 77 -287 l3 -188
-75 0 -76 0 0 150 c0 151 -10 206 -40 225 -7 4 -30 8 -52 8 -30 0 -47 -7 -66
-27 -27 -26 -27 -28 -30 -191 l-3 -165 -75 0 -74 0 0 250 0 250 75 0 75 0 0
-35 c0 -43 8 -44 45 -5 16 17 43 35 60 40 44 13 115 2 156 -25z m-521 -225 l0
-250 -75 0 -75 0 0 250 0 250 75 0 75 0 0 -250z"/>
</g>
</svg>
